<?xml version="1.0" encoding="utf-8"?>
<svg version="1.1" id="Layer_1" x="0px" y="0px" viewBox="0 0 512 512" style="enable-background:new 0 0 512 512;" xmlns="http://www.w3.org/2000/svg">
  <g style="" transform="matrix(0.377889, 0, 0, 0.424137, -11.55322, 157.131042)">
    <g>
      <path d="M469.289,48.943H361.93c-5.632,0-10.199,4.566-10.199,10.199v187.747h-69.976v-83.336V10.199 C281.755,4.566,277.188,0,271.556,0h-61.352c-5.632,0-10.199,4.566-10.199,10.199v143.154h-22.538V96.892 c0-5.633-4.567-10.199-10.199-10.199c-5.632,0-10.199,4.566-10.199,10.199v56.461h-11.034c-5.632,0-10.199,4.566-10.199,10.199 v49.619H83.634v-37.745c0-5.633-4.567-10.199-10.199-10.199s-10.199,4.566-10.199,10.199v37.746H42.711 c-5.632,0-10.199,4.566-10.199,10.199v278.429c0,5.633,4.567,10.199,10.199,10.199h426.578c5.632,0,10.199-4.566,10.199-10.199 V59.142C479.488,53.509,474.921,48.943,469.289,48.943z M135.835,491.602H52.91V233.571h82.925V491.602z M261.357,491.602H156.233 v-317.85h105.123V491.602z M261.357,153.353h-40.954V20.398h40.954V153.353z M351.723,491.602h-69.968V267.286h69.968V491.602z M459.09,491.602h-86.96V69.341h86.96V491.602z"/>
    </g>
  </g>
  <g/>
  <g/>
  <g/>
  <g/>
  <g/>
  <g/>
  <g/>
  <g/>
  <g/>
  <g/>
  <g/>
  <g/>
  <g/>
  <g/>
  <g/>
  <g style="" transform="matrix(0.377889, 0, 0, 0.424137, 150.550079, 156.641052)">
    <g>
      <path d="M469.289,48.943H361.93c-5.632,0-10.199,4.566-10.199,10.199v187.747h-69.976v-83.336V10.199 C281.755,4.566,277.188,0,271.556,0h-61.352c-5.632,0-10.199,4.566-10.199,10.199v143.154h-22.538V96.892 c0-5.633-4.567-10.199-10.199-10.199c-5.632,0-10.199,4.566-10.199,10.199v56.461h-11.034c-5.632,0-10.199,4.566-10.199,10.199 v49.619H83.634v-37.745c0-5.633-4.567-10.199-10.199-10.199s-10.199,4.566-10.199,10.199v37.746H42.711 c-5.632,0-10.199,4.566-10.199,10.199v278.429c0,5.633,4.567,10.199,10.199,10.199h426.578c5.632,0,10.199-4.566,10.199-10.199 V59.142C479.488,53.509,474.921,48.943,469.289,48.943z M135.835,491.602H52.91V233.571h82.925V491.602z M261.357,491.602H156.233 v-317.85h105.123V491.602z M261.357,153.353h-40.954V20.398h40.954V153.353z M351.723,491.602h-69.968V267.286h69.968V491.602z M459.09,491.602h-86.96V69.341h86.96V491.602z"/>
    </g>
  </g>
  <g style="" transform="matrix(0.377889, 0, 0, 0.424137, 311.743195, 156.875549)">
    <g>
      <path d="M469.289,48.943H361.93c-5.632,0-10.199,4.566-10.199,10.199v187.747h-69.976v-83.336V10.199 C281.755,4.566,277.188,0,271.556,0h-61.352c-5.632,0-10.199,4.566-10.199,10.199v143.154h-22.538V96.892 c0-5.633-4.567-10.199-10.199-10.199c-5.632,0-10.199,4.566-10.199,10.199v56.461h-11.034c-5.632,0-10.199,4.566-10.199,10.199 v49.619H83.634v-37.745c0-5.633-4.567-10.199-10.199-10.199s-10.199,4.566-10.199,10.199v37.746H42.711 c-5.632,0-10.199,4.566-10.199,10.199v278.429c0,5.633,4.567,10.199,10.199,10.199h426.578c5.632,0,10.199-4.566,10.199-10.199 V59.142C479.488,53.509,474.921,48.943,469.289,48.943z M135.835,491.602H52.91V233.571h82.925V491.602z M261.357,491.602H156.233 v-317.85h105.123V491.602z M261.357,153.353h-40.954V20.398h40.954V153.353z M351.723,491.602h-69.968V267.286h69.968V491.602z M459.09,491.602h-86.96V69.341h86.96V491.602z"/>
    </g>
  </g>
  <g style="" transform="matrix(0.377889, 0, 0, 0.424137, 474.405243, 156.461746)">
    <g>
      <path d="M469.289,48.943H361.93c-5.632,0-10.199,4.566-10.199,10.199v187.747h-69.976v-83.336V10.199 C281.755,4.566,277.188,0,271.556,0h-61.352c-5.632,0-10.199,4.566-10.199,10.199v143.154h-22.538V96.892 c0-5.633-4.567-10.199-10.199-10.199c-5.632,0-10.199,4.566-10.199,10.199v56.461h-11.034c-5.632,0-10.199,4.566-10.199,10.199 v49.619H83.634v-37.745c0-5.633-4.567-10.199-10.199-10.199s-10.199,4.566-10.199,10.199v37.746H42.711 c-5.632,0-10.199,4.566-10.199,10.199v278.429c0,5.633,4.567,10.199,10.199,10.199h426.578c5.632,0,10.199-4.566,10.199-10.199 V59.142C479.488,53.509,474.921,48.943,469.289,48.943z M135.835,491.602H52.91V233.571h82.925V491.602z M261.357,491.602H156.233 v-317.85h105.123V491.602z M261.357,153.353h-40.954V20.398h40.954V153.353z M351.723,491.602h-69.968V267.286h69.968V491.602z M459.09,491.602h-86.96V69.341h86.96V491.602z"/>
    </g>
  </g>
</svg>